<svg width="56" height="56" viewBox="0 0 56 56" fill="none" xmlns="http://www.w3.org/2000/svg">
<g clip-path="url(#clip0_727_16579)">
<path d="M56 0H0V56H56V0Z" fill="#99BA96"/>
<path d="M45.626 10.3739H10.374V45.6259H45.626V10.3739Z" fill="#397E32"/>
<path d="M28.4537 14.3518L32.4316 23.0955C32.4968 23.2368 32.6327 23.3346 32.7848 23.3509L42.0992 24.2856C42.4741 24.3236 42.6263 24.7855 42.3491 25.0409L35.1107 31.7251C34.9966 31.8337 34.9477 31.9913 34.9803 32.1435L37.0888 41.0013C37.1757 41.3763 36.7736 41.6752 36.4421 41.4741L28.2853 36.567C28.1494 36.4855 27.9755 36.4855 27.8342 36.567L19.672 41.4795C19.3405 41.6806 18.9329 41.3817 19.0253 41.0068L21.1338 32.1489C21.1718 31.9968 21.1229 31.8337 21.0034 31.7305L13.765 25.0355C13.4878 24.7801 13.6454 24.3182 14.0149 24.2801L23.3292 23.3454C23.4814 23.3291 23.6173 23.2313 23.6825 23.09L27.6603 14.3463C27.8179 14.0094 28.3016 14.0094 28.4537 14.3518Z" fill="white"/>
</g>
<defs>
<clipPath id="clip0_727_16579">
<rect width="56" height="56" rx="7" fill="white"/>
</clipPath>
</defs>
</svg>
