<svg width="64" height="64" viewBox="0 0 64 64" fill="none" xmlns="http://www.w3.org/2000/svg">
<g clip-path="url(#clip0_6332_1555)">
<path d="M56 0H8C3.58172 0 0 3.58172 0 8V56C0 60.4183 3.58172 64 8 64H56C60.4183 64 64 60.4183 64 56V8C64 3.58172 60.4183 0 56 0Z" fill="#99BA96"/>
<path d="M52.1439 11.856H11.8559V52.144H52.1439V11.856Z" fill="#397E32"/>
<path fill-rule="evenodd" clip-rule="evenodd" d="M27.0655 26.3888C26.991 26.5502 26.8357 26.662 26.6618 26.6806L16.0169 27.7489C15.5946 27.7923 15.4145 28.3202 15.7312 28.6121L24.0037 36.2636C24.1403 36.3816 24.1962 36.5679 24.1528 36.7418L21.7431 46.865C21.6375 47.2936 22.1033 47.6351 22.4821 47.4053L31.8104 41.791C31.9719 41.6978 32.1706 41.6978 32.3259 41.791L41.648 47.3991C42.0268 47.6289 42.4864 47.2873 42.387 46.8588L39.9773 36.7356C39.94 36.5617 39.9959 36.3816 40.1264 36.2574L48.3989 28.6183C48.7156 28.3265 48.5417 27.7986 48.1132 27.7551L37.4682 26.6869C37.2943 26.6682 37.1391 26.5564 37.0645 26.395L32.5184 16.4021C32.3445 16.0109 31.7918 16.0109 31.6117 16.3959L27.0655 26.3888ZM32.0636 22.6471L29.7894 27.6459C29.2784 28.7532 28.2178 29.5311 26.9814 29.6636L26.9614 29.6657L21.8437 30.1792L26.0199 34.0419C26.9924 34.9181 27.362 36.2367 27.0692 37.4451L26.0417 41.7615L30.2872 39.2063L30.3112 39.1924C31.3817 38.5748 32.746 38.5445 33.8694 39.2185L33.8724 39.2203L38.0887 41.7569L37.051 37.3973L37.0439 37.3642C36.7856 36.1588 37.1794 34.9211 38.0574 34.0849L38.0741 34.069L42.2804 30.1848L37.1486 29.6699C35.9123 29.5374 34.8517 28.7594 34.3407 27.6521L34.3338 27.6373L32.0636 22.6471Z" fill="white"/>
</g>
<defs>
<clipPath id="clip0_6332_1555">
<rect width="64" height="64" fill="white"/>
</clipPath>
</defs>
</svg>
